<?xml version="1.0" encoding="UTF-8"?>
<svg id="Layer_1" xmlns="http://www.w3.org/2000/svg" version="1.1" viewBox="0 0 141.73 141.73">
  <!-- Generator: Adobe Illustrator 30.0.0, SVG Export Plug-In . SVG Version: 2.1.1 Build 123)  -->
  <defs>
    <style>
      .st0 {
        fill: #fff;
      }
    </style>
  </defs>
  <path class="st0" d="M122.11,96.71l-9.9-44.17c-.48-2.18-2.69-3.75-5.23-3.75h-44.58c-.41-2.47-1.33-4.77-2.74-6.83l4.55-4.55c.53-.53.82-1.23.82-1.99s-.29-1.45-.82-1.99c-1.07-1.07-2.91-1.07-3.97,0l-4.46,4.46c-2.23-1.67-4.79-2.78-7.55-3.24v-6.42c0-1.55-1.26-2.81-2.81-2.81s-2.81,1.26-2.81,2.81v6.42c-2.45.41-4.79,1.36-6.85,2.76l-4.58-4.58c-1.07-1.07-2.91-1.07-3.97,0-.53.53-.82,1.23-.82,1.99s.29,1.45.82,1.99l4.48,4.48c-1.67,2.2-2.76,4.79-3.22,7.51h-6.37c-1.55,0-2.81,1.26-2.81,2.81s1.26,2.81,2.81,2.81h6.37c.44,2.59,1.45,5.06,2.98,7.19l-4.5,4.5c-.53.53-.82,1.23-.82,1.99s.29,1.45.82,1.99c1.07,1.07,2.93,1.07,3.97,0l4.5-4.5c.92.65,1.89,1.21,2.91,1.67l-6.61,29.47c-.34,1.53,0,3.08.94,4.26.94,1.19,2.45,1.89,4.07,1.89h37.36v7.82h-14.36c-1.55,0-2.81,1.26-2.81,2.81s1.26,2.81,2.81,2.81h34.31c1.55,0,2.81-1.26,2.81-2.81s-1.26-2.81-2.81-2.81h-14.36v-7.82h37.39c1.62,0,3.12-.68,4.07-1.89.94-1.16,1.28-2.71.94-4.26h.02ZM116.5,97.22h-22.81l-1.21-13.2h21.07s2.95,13.2,2.95,13.2ZM40.34,84.05h19.66l-1.21,13.2h-21.41s2.95-13.2,2.95-13.2ZM45.48,40.03c5.35,0,9.95,3.73,11.21,8.77h-9.78c-2.54,0-4.75,1.57-5.23,3.75l-2.03,9.06c-3.51-2.03-5.74-5.84-5.74-10,0-6.39,5.18-11.57,11.57-11.57h0ZM67.61,62.79l.77-8.4h15.71l.77,8.4h-17.26ZM88.04,97.22h-23.63l1.21-13.2h21.19l1.21,13.2h.02ZM90.49,62.79l-.77-8.4h17.17l1.89,8.4h-18.28ZM66.16,78.43l.92-10.02h18.31l.92,10.02s-20.15,0-20.15,0ZM61.46,68.41l-.92,10.02h-18.94l2.25-10.02s17.6,0,17.6,0ZM61.97,62.79h-16.85l1.89-8.4h15.76l-.77,8.4h-.02ZM91.02,68.41h19.01l2.25,10.02h-20.32l-.92-10.02h-.02Z"/>
</svg>