<?xml version="1.0" encoding="UTF-8"?>
<svg id="Layer_1" xmlns="http://www.w3.org/2000/svg" version="1.1" viewBox="0 0 56.69 793.7">
  <!-- Generator: Adobe Illustrator 30.0.0, SVG Export Plug-In . SVG Version: 2.1.1 Build 123)  -->
  <defs>
    <style>
      .st0 {
        fill: #55bb6b;
      }

      .st1 {
        fill: #e61e25;
      }

      .st2 {
        fill: #fff;
      }

      .st3 {
        fill: none;
        stroke: #231f20;
        stroke-miterlimit: 10;
        stroke-width: .5px;
      }

      .st4 {
        fill: #0e542c;
      }

      .st5 {
        fill: #414142;
      }

      .st6 {
        fill: #c3aa71;
      }

      .st7 {
        fill: #fee01b;
      }
    </style>
  </defs>
  <rect class="st6" width="56.69" height="793.7"/>
  <rect class="st3" x="5.67" y="56.69" width="45.35" height="45.35"/>
  <rect class="st1" x="5.67" y="147.4" width="45.35" height="45.35"/>
  <rect class="st7" x="5.67" y="223.78" width="45.35" height="45.35"/>
  <rect class="st0" x="5.67" y="313.31" width="45.35" height="45.35"/>
  <rect class="st4" x="5.67" y="404.19" width="45.35" height="45.35"/>
  <path class="st2" d="M49.45,509.04l-7.97-17.74c-.74-1.17-1.8-1.54-3.1-1.01-1.11.45-5.2,2.81-6.12,3.55-.67.55-1.01,1.41-.86,2.27.17.99,3.15,4.66,3.91,5.76.09.13.53.71.46.8l-26.83,15.4c-2.67,1.37-1.51,4.99,1.46,4.59v10.9h-4.72v4.7h39.87v-24.99s4.99-1.85,3.91-4.24ZM15.79,533.56h-3.09v-12.16l8.13-4.67-5.04,16.83ZM25.51,524.82c-3.74-.09-3.75-5.76,0-5.85,3.93-.09,3.92,5.94,0,5.85ZM35.42,533.56l-6.55-21.5,9.75-5.65,4.51,6.32v20.84h-7.7Z"/>
  <g>
    <path class="st5" d="M12.35,113.05v1.42c0,.6-.07,1.13-.22,1.58s-.35.83-.62,1.13-.59.53-.97.68-.79.23-1.25.23-.87-.08-1.25-.23-.7-.38-.97-.68-.48-.68-.63-1.13-.22-.98-.22-1.58v-1.42c0-.62.07-1.16.22-1.62s.35-.85.63-1.16.6-.54.97-.7.79-.24,1.25-.24.87.08,1.25.24.7.39.97.7.48.7.63,1.16.22,1,.22,1.62ZM10.65,114.48v-1.44c0-.41-.03-.75-.09-1.04s-.15-.52-.26-.71-.26-.32-.43-.4-.36-.13-.59-.13-.42.04-.59.13-.31.22-.43.4-.2.42-.26.71-.08.63-.08,1.04v1.44c0,.39.03.72.09,1s.15.5.26.68.26.31.43.39.37.13.59.13.41-.04.58-.13.31-.21.42-.39.2-.4.26-.68.09-.61.09-1Z"/>
    <path class="st5" d="M13.52,110c0-.25.08-.46.24-.63s.38-.25.66-.25.49.08.65.25.24.37.24.63-.08.46-.24.63-.38.25-.65.25-.5-.08-.66-.25-.24-.38-.24-.63ZM15.24,111.64v6.34h-1.65v-6.34h1.65Z"/>
    <path class="st5" d="M18.27,108.98v9h-1.65v-9h1.65Z"/>
    <path class="st5" d="M24.13,109.45v8.53h-1.72v-8.53h1.72ZM27.13,109.45v1.42h-3.43v-1.42h3.43ZM26.8,113.08v1.42h-3.11v-1.42h3.11Z"/>
    <path class="st5" d="M28.05,110c0-.25.08-.46.24-.63s.38-.25.66-.25.49.08.65.25.24.37.24.63-.08.46-.24.63-.38.25-.65.25-.5-.08-.66-.25-.24-.38-.24-.63ZM29.77,111.64v6.34h-1.65v-6.34h1.65Z"/>
    <path class="st5" d="M33.62,118.1c-.43,0-.82-.07-1.15-.2s-.62-.33-.85-.58-.41-.56-.53-.92-.18-.77-.18-1.23v-.52c0-.52.06-.97.18-1.36s.28-.72.5-.98.48-.46.79-.59.67-.2,1.07-.2.75.07,1.05.2.55.33.75.59.35.58.45.96.15.83.15,1.34v.75h-4.25v-1.15h2.64v-.15c0-.26-.03-.47-.08-.65s-.14-.3-.26-.39-.27-.13-.47-.13c-.16,0-.3.03-.42.1s-.2.17-.27.31-.12.32-.15.55-.05.49-.05.81v.52c0,.29.03.54.08.74s.13.36.23.48.22.21.37.26.31.08.5.08c.29,0,.55-.05.78-.16s.43-.25.59-.42l.66,1c-.11.15-.27.3-.47.45s-.44.27-.71.36-.6.14-.96.14Z"/>
    <path class="st5" d="M38.53,108.98v9h-1.65v-9h1.65Z"/>
    <path class="st5" d="M39.62,115.04v-.42c0-.52.04-.97.13-1.35s.22-.71.4-.97.39-.45.65-.58.55-.19.88-.19c.3,0,.57.08.79.23s.42.36.58.63.29.59.39.96.17.77.21,1.21v.61c-.05.41-.12.8-.21,1.16s-.22.67-.39.94-.36.47-.58.62-.49.23-.79.23c-.33,0-.63-.07-.88-.2s-.47-.33-.64-.59-.3-.58-.39-.96-.13-.82-.13-1.32ZM41.26,114.61v.42c0,.3.01.55.04.76s.08.39.15.52.16.23.27.3.25.1.42.1c.22,0,.4-.06.53-.17s.24-.27.31-.46.11-.42.11-.68v-1.11c0-.21-.03-.41-.08-.58s-.1-.32-.18-.44-.17-.21-.29-.28-.25-.1-.4-.1c-.16,0-.3.03-.42.1s-.21.17-.27.31-.12.32-.15.53-.05.48-.05.78ZM42.91,116.58v-7.6h1.65v9h-1.49s-.16-1.4-.16-1.4Z"/>
    <path class="st5" d="M8.08,123.85v8.53h-1.72v-8.53h1.72ZM11.09,130.96v1.42h-3.54v-1.42h3.54Z"/>
    <path class="st5" d="M14.58,132.5c-.43,0-.82-.07-1.15-.2s-.62-.33-.85-.58-.41-.56-.53-.92-.18-.77-.18-1.23v-.52c0-.52.06-.97.18-1.36s.28-.72.5-.98.48-.46.79-.59.67-.2,1.07-.2.75.07,1.05.2.55.33.75.59.35.58.45.96.15.83.15,1.34v.75h-4.25v-1.15h2.64v-.15c0-.26-.03-.47-.08-.65s-.14-.3-.26-.39-.27-.13-.47-.13c-.16,0-.3.03-.42.1s-.2.17-.27.31-.12.32-.15.55-.05.49-.05.81v.52c0,.29.03.54.08.74s.13.36.23.48.22.21.37.26.31.08.5.08c.29,0,.55-.05.78-.16s.43-.25.59-.42l.66,1c-.11.15-.27.3-.47.45s-.44.27-.71.36-.6.14-.96.14Z"/>
    <path class="st5" d="M20.76,128.51v.98s-.6,0-.6,0c-.16,0-.29.03-.41.08s-.21.12-.29.21-.14.2-.17.32-.06.25-.06.39c0,.15.02.28.06.39s.11.19.19.24.19.08.3.08c.18,0,.34-.04.47-.11s.23-.16.3-.27.08-.2.06-.29l.38.64c-.05.14-.11.29-.19.45s-.18.3-.3.43-.27.24-.45.33-.39.13-.63.13c-.34,0-.65-.08-.93-.23s-.5-.38-.67-.66-.24-.62-.24-1c0-.32.05-.61.16-.87s.26-.48.47-.66.47-.32.79-.42.69-.15,1.11-.15h.65ZM20.56,130.92v-2.93c0-.19-.02-.34-.07-.46s-.11-.2-.2-.25-.19-.08-.32-.08c-.14,0-.26.03-.35.09s-.16.14-.21.25-.07.24-.07.39h-1.65c0-.27.05-.53.16-.78s.26-.46.47-.64.45-.33.74-.44.61-.16.96-.16c.42,0,.8.07,1.12.21s.59.37.78.68.29.71.29,1.2v2.82c0,.36.02.64.06.87s.09.41.17.57v.1h-1.65c-.07-.18-.13-.4-.17-.66s-.06-.53-.06-.8Z"/>
    <path class="st5" d="M26.23,130.67c0-.11-.04-.21-.11-.29s-.19-.17-.35-.27-.37-.19-.64-.31c-.29-.12-.54-.24-.77-.36s-.41-.26-.57-.42-.27-.33-.35-.52-.12-.42-.12-.67c0-.27.05-.52.15-.75s.24-.43.43-.6.42-.31.69-.41.58-.15.92-.15c.48,0,.89.08,1.23.25s.6.4.79.69.28.64.28,1.04h-1.64c0-.14-.02-.27-.06-.38s-.11-.2-.21-.26-.22-.09-.38-.09c-.12,0-.22.03-.31.08s-.16.12-.22.2-.08.18-.08.3c0,.09.02.16.06.23s.1.13.18.19.19.13.33.2.31.14.51.23c.42.16.77.32,1.04.5s.47.39.61.63.2.54.2.89c0,.28-.05.54-.16.77s-.26.43-.47.6-.45.3-.73.39-.6.13-.95.13c-.51,0-.94-.1-1.29-.3s-.62-.46-.8-.78-.27-.65-.27-.99h1.56c0,.21.05.38.12.5s.17.2.3.25.26.07.42.07.28-.02.38-.06.17-.11.23-.19.08-.19.08-.31Z"/>
    <path class="st5" d="M31.42,132.5c-.43,0-.82-.07-1.15-.2s-.62-.33-.85-.58-.41-.56-.53-.92-.18-.77-.18-1.23v-.52c0-.52.06-.97.18-1.36s.28-.72.5-.98.48-.46.79-.59.67-.2,1.07-.2.75.07,1.05.2.55.33.75.59.35.58.45.96.15.83.15,1.34v.75h-4.25v-1.15h2.64v-.15c0-.26-.03-.47-.08-.65s-.14-.3-.26-.39-.27-.13-.47-.13c-.16,0-.3.03-.42.1s-.2.17-.27.31-.12.32-.15.55-.05.49-.05.81v.52c0,.29.03.54.08.74s.13.36.23.48.22.21.37.26.31.08.5.08c.29,0,.55-.05.78-.16s.43-.25.59-.42l.66,1c-.11.15-.27.3-.47.45s-.44.27-.71.36-.6.14-.96.14Z"/>
    <path class="st5" d="M34.39,129.44v-.42c0-.52.04-.97.13-1.35s.22-.71.4-.97.39-.45.65-.58.55-.19.88-.19c.3,0,.57.08.79.23s.42.36.58.63.29.59.39.96.17.77.21,1.21v.61c-.05.41-.12.8-.21,1.16s-.22.67-.39.94-.36.47-.58.62-.49.23-.79.23c-.33,0-.63-.07-.88-.2s-.47-.33-.64-.59-.3-.58-.39-.96-.13-.82-.13-1.32ZM36.03,129.01v.42c0,.3.01.55.04.76s.08.39.15.52.16.23.27.3.25.1.42.1c.22,0,.4-.06.53-.17s.24-.27.31-.46.11-.42.11-.68v-1.11c0-.21-.03-.41-.08-.58s-.1-.32-.18-.44-.17-.21-.29-.28-.25-.1-.4-.1c-.16,0-.3.03-.42.1s-.21.17-.27.31-.12.32-.15.53-.05.48-.05.78ZM37.68,130.98v-7.6h1.65v9h-1.49s-.16-1.4-.16-1.4Z"/>
  </g>
  <g>
    <path class="st5" d="M8.08,198.98v8.53h-1.72v-8.53h1.72ZM8.59,207.51h-1.51v-1.42h1.51c.41,0,.74-.07.97-.22s.39-.38.49-.7.14-.74.14-1.26v-1.33c0-.39-.03-.73-.08-1s-.14-.5-.26-.67-.28-.3-.49-.38-.46-.12-.76-.12h-1.56v-1.42h1.56c.49,0,.94.08,1.34.24s.75.39,1.04.7.51.68.67,1.13.23.96.23,1.54v1.32c0,.58-.08,1.09-.23,1.54s-.38.82-.67,1.13-.63.54-1.04.7-.86.24-1.37.24Z"/>
    <path class="st5" d="M13.15,198.98h2.74c.57,0,1.06.1,1.46.29s.71.48.93.87.32.86.32,1.42c0,.46-.06.85-.19,1.18s-.3.6-.53.81-.51.39-.83.52l-.52.31h-2.22v-1.42s1.54,0,1.54,0c.23,0,.43-.05.58-.16s.27-.25.35-.44.11-.41.11-.67c0-.27-.03-.5-.1-.69s-.18-.34-.32-.45-.34-.16-.57-.16h-1.02v7.11h-1.72v-8.53ZM17.02,207.51l-1.56-3.8h1.8s1.6,3.72,1.6,3.72v.08h-1.83Z"/>
    <path class="st5" d="M20.76,198.98l1.3,3.84,1.29-3.84h1.87l-2.3,5.43v3.1h-1.73v-3.1l-2.3-5.43h1.86Z"/>
    <path class="st5" d="M30.04,198.98l1.1,7.27-.19,1.26h-1.08l-1.53-8.53h1.69ZM30.51,206.23l1.37-7.25h.9l.27,1.12-1.46,7.41h-.98l-.09-1.28ZM33.3,198.98l1.38,7.29-.11,1.24h-.98l-1.46-7.42.28-1.11h.9ZM34.04,206.22l1.1-7.24h1.69l-1.52,8.53h-1.08l-.18-1.29Z"/>
    <path class="st5" d="M40.06,207.63c-.43,0-.82-.07-1.15-.2s-.62-.33-.85-.58-.41-.56-.53-.92-.18-.77-.18-1.23v-.52c0-.52.06-.97.18-1.36s.28-.72.5-.98.48-.46.79-.59.67-.2,1.07-.2.75.07,1.05.2.55.33.75.59.35.58.45.96.15.83.15,1.34v.75h-4.25v-1.15h2.64v-.15c0-.26-.03-.47-.08-.65s-.14-.3-.26-.39-.27-.13-.47-.13c-.16,0-.3.03-.42.1s-.2.17-.27.31-.12.32-.15.55-.05.49-.05.81v.52c0,.29.03.54.08.74s.13.36.23.48.22.21.37.26.31.08.5.08c.29,0,.55-.05.78-.16s.43-.25.59-.42l.66,1c-.11.15-.27.3-.47.45s-.44.27-.71.36-.6.14-.96.14Z"/>
    <path class="st5" d="M44.97,198.51v9h-1.65v-9h1.65Z"/>
    <path class="st5" d="M47.99,198.51v9h-1.65v-9h1.65Z"/>
  </g>
  <g>
    <path class="st5" d="M8.08,274.1v8.53h-1.72v-8.53h1.72ZM11.09,281.22v1.42h-3.54v-1.42h3.54Z"/>
    <path class="st5" d="M17.72,277.71v1.42c0,.6-.07,1.13-.22,1.58s-.35.83-.62,1.13-.59.53-.97.68-.79.23-1.25.23-.87-.08-1.25-.23-.7-.38-.97-.68-.48-.68-.63-1.13-.22-.98-.22-1.58v-1.42c0-.62.07-1.16.22-1.62s.35-.85.63-1.16.6-.54.97-.7.79-.24,1.25-.24.87.08,1.25.24.7.39.97.7.48.7.63,1.16.22,1,.22,1.62ZM16.02,279.13v-1.44c0-.41-.03-.75-.09-1.04s-.15-.52-.26-.71-.26-.32-.43-.4-.36-.13-.59-.13-.42.04-.59.13-.31.22-.43.4-.2.42-.26.71-.08.63-.08,1.04v1.44c0,.39.03.72.09,1s.15.5.26.68.26.31.43.39.37.13.59.13.41-.04.58-.13.31-.21.42-.39.2-.4.26-.68.09-.61.09-1Z"/>
    <path class="st5" d="M20.24,274.1l1.1,7.27-.19,1.26h-1.08l-1.53-8.53h1.69ZM20.71,281.36l1.37-7.25h.9l.27,1.12-1.46,7.41h-.98l-.09-1.28ZM23.5,274.1l1.38,7.29-.11,1.24h-.98l-1.46-7.42.28-1.11h.9ZM24.24,281.35l1.1-7.24h1.69l-1.52,8.53h-1.08l-.18-1.29Z"/>
    <path class="st5" d="M7.63,288.5l1.3,3.84,1.29-3.84h1.87l-2.3,5.43v3.1h-1.73v-3.1l-2.3-5.43h1.86Z"/>
    <path class="st5" d="M12.79,289.05c0-.25.08-.46.24-.63s.38-.25.66-.25.49.08.65.25.24.37.24.63-.08.46-.24.63-.38.25-.65.25-.5-.08-.66-.25-.24-.38-.24-.63ZM14.51,290.69v6.34h-1.65v-6.34h1.65Z"/>
    <path class="st5" d="M18.37,297.15c-.43,0-.82-.07-1.15-.2s-.62-.33-.85-.58-.41-.56-.53-.92-.18-.77-.18-1.23v-.52c0-.52.06-.97.18-1.36s.28-.72.5-.98.48-.46.79-.59.67-.2,1.07-.2.75.07,1.05.2.55.33.75.59.35.58.45.96.15.83.15,1.34v.75h-4.25v-1.15h2.64v-.15c0-.26-.03-.47-.08-.65s-.14-.3-.26-.39-.27-.13-.47-.13c-.16,0-.3.03-.42.1s-.2.17-.27.31-.12.32-.15.55-.05.49-.05.81v.52c0,.29.03.54.08.74s.13.36.23.48.22.21.37.26.31.08.5.08c.29,0,.55-.05.78-.16s.43-.25.59-.42l.66,1c-.11.15-.27.3-.47.45s-.44.27-.71.36-.6.14-.96.14Z"/>
    <path class="st5" d="M23.28,288.03v9h-1.65v-9h1.65Z"/>
    <path class="st5" d="M24.36,294.09v-.42c0-.52.04-.97.13-1.35s.22-.71.4-.97.39-.45.65-.58.55-.19.88-.19c.3,0,.57.08.79.23s.42.36.58.63.29.59.39.96.17.77.21,1.21v.61c-.05.41-.12.8-.21,1.16s-.22.67-.39.94-.36.47-.58.62-.49.23-.79.23c-.33,0-.63-.07-.88-.2s-.47-.33-.64-.59-.3-.58-.39-.96-.13-.82-.13-1.32ZM26,293.67v.42c0,.3.01.55.04.76s.08.39.15.52.16.23.27.3.25.1.42.1c.22,0,.4-.06.53-.17s.24-.27.31-.46.11-.42.11-.68v-1.11c0-.21-.03-.41-.08-.58s-.1-.32-.18-.44-.17-.21-.29-.28-.25-.1-.4-.1c-.16,0-.3.03-.42.1s-.21.17-.27.31-.12.32-.15.53-.05.48-.05.78ZM27.65,295.63v-7.6h1.65v9h-1.49s-.16-1.4-.16-1.4Z"/>
  </g>
  <g>
    <path class="st5" d="M6.36,363.63h1.44l.22,5.62v2.91h-1.66v-8.53ZM6.97,363.63h1.51l1.74,5.84,1.73-5.84h1.33l-2.43,8.53h-1.28l-2.6-8.53ZM12.62,363.63h1.44v8.53h-1.65v-2.91l.21-5.62Z"/>
    <path class="st5" d="M17.18,363.63v8.53h-1.72v-8.53h1.72ZM20.34,363.63v1.42h-3.7v-1.42h3.7ZM19.85,367.09v1.38h-3.21v-1.38h3.21ZM20.35,370.74v1.42h-3.71v-1.42h3.71Z"/>
    <path class="st5" d="M23.07,363.63v8.53h-1.72v-8.53h1.72ZM23.58,372.16h-1.51v-1.42h1.51c.41,0,.74-.07.97-.22s.39-.38.49-.7.14-.74.14-1.26v-1.33c0-.39-.03-.73-.08-1s-.14-.5-.26-.67-.28-.3-.49-.38-.46-.12-.76-.12h-1.56v-1.42h1.56c.49,0,.94.08,1.34.24s.75.39,1.04.7.51.68.67,1.13.23.96.23,1.54v1.32c0,.58-.08,1.09-.23,1.54s-.38.82-.67,1.13-.63.54-1.04.7-.86.24-1.37.24Z"/>
    <path class="st5" d="M29.91,363.63v8.53h-1.71v-8.53h1.71Z"/>
    <path class="st5" d="M35.2,363.63h1.71v5.86c0,.66-.12,1.19-.36,1.6s-.57.71-.99.9-.9.28-1.45.28-1.03-.09-1.46-.28-.76-.49-.99-.9-.35-.95-.35-1.6v-5.86h1.71v5.86c0,.37.04.66.13.86s.21.33.37.41.36.11.6.11.44-.04.6-.11.28-.21.36-.41.13-.48.13-.86v-5.86Z"/>
    <path class="st5" d="M38.22,363.63h1.44l.22,5.62v2.91h-1.66v-8.53ZM38.83,363.63h1.51l1.74,5.84,1.73-5.84h1.33l-2.43,8.53h-1.28l-2.6-8.53ZM44.48,363.63h1.44v8.53h-1.65v-2.91l.21-5.62Z"/>
    <path class="st5" d="M7.63,378.03l1.3,3.84,1.29-3.84h1.87l-2.3,5.43v3.1h-1.73v-3.1l-2.3-5.43h1.86Z"/>
    <path class="st5" d="M12.79,378.57c0-.25.08-.46.24-.63s.38-.25.66-.25.49.08.65.25.24.37.24.63-.08.46-.24.63-.38.25-.65.25-.5-.08-.66-.25-.24-.38-.24-.63ZM14.51,380.22v6.34h-1.65v-6.34h1.65Z"/>
    <path class="st5" d="M18.37,386.68c-.43,0-.82-.07-1.15-.2s-.62-.33-.85-.58-.41-.56-.53-.92-.18-.77-.18-1.23v-.52c0-.52.06-.97.18-1.36s.28-.72.5-.98.48-.46.79-.59.67-.2,1.07-.2.75.07,1.05.2.55.33.75.59.35.58.45.96.15.83.15,1.34v.75h-4.25v-1.15h2.64v-.15c0-.26-.03-.47-.08-.65s-.14-.3-.26-.39-.27-.13-.47-.13c-.16,0-.3.03-.42.1s-.2.17-.27.31-.12.32-.15.55-.05.49-.05.81v.52c0,.29.03.54.08.74s.13.36.23.48.22.21.37.26.31.08.5.08c.29,0,.55-.05.78-.16s.43-.25.59-.42l.66,1c-.11.15-.27.3-.47.45s-.44.27-.71.36-.6.14-.96.14Z"/>
    <path class="st5" d="M23.28,377.56v9h-1.65v-9h1.65Z"/>
    <path class="st5" d="M24.36,383.61v-.42c0-.52.04-.97.13-1.35s.22-.71.4-.97.39-.45.65-.58.55-.19.88-.19c.3,0,.57.08.79.23s.42.36.58.63.29.59.39.96.17.77.21,1.21v.61c-.05.41-.12.8-.21,1.16s-.22.67-.39.94-.36.47-.58.62-.49.23-.79.23c-.33,0-.63-.07-.88-.2s-.47-.33-.64-.59-.3-.58-.39-.96-.13-.82-.13-1.32ZM26,383.19v.42c0,.3.01.55.04.76s.08.39.15.52.16.23.27.3.25.1.42.1c.22,0,.4-.06.53-.17s.24-.27.31-.46.11-.42.11-.68v-1.11c0-.21-.03-.41-.08-.58s-.1-.32-.18-.44-.17-.21-.29-.28-.25-.1-.4-.1c-.16,0-.3.03-.42.1s-.21.17-.27.31-.12.32-.15.53-.05.48-.05.78ZM27.65,385.16v-7.6h1.65v9h-1.49s-.16-1.4-.16-1.4Z"/>
  </g>
  <g>
    <path class="st5" d="M8.08,453.16v8.53h-1.72v-8.53h1.72ZM11.09,456.61v1.42h-3.5v-1.42h3.5ZM12.33,453.16v8.53h-1.7v-8.53h1.7Z"/>
    <path class="st5" d="M15.51,453.16v8.53h-1.71v-8.53h1.71Z"/>
    <path class="st5" d="M22.76,457.21v3.52c-.12.13-.3.28-.53.45s-.54.32-.91.45-.83.19-1.36.19c-.47,0-.9-.07-1.29-.22s-.71-.37-.99-.68-.49-.68-.63-1.14-.22-1-.22-1.62v-1.45c0-.62.07-1.16.21-1.61s.34-.84.61-1.15.58-.53.95-.68.79-.22,1.25-.22c.64,0,1.17.11,1.58.32s.72.53.94.96.34.94.38,1.55h-1.66c-.03-.36-.09-.64-.18-.84s-.22-.35-.38-.44-.38-.13-.64-.13c-.23,0-.42.04-.59.12s-.31.21-.42.39-.2.41-.25.69-.08.62-.08,1.03v1.46c0,.4.03.75.09,1.03s.16.52.28.7.28.31.47.39.41.12.67.12c.21,0,.37-.02.5-.06s.23-.09.3-.14.14-.09.19-.11v-1.57h-1.22v-1.29h2.94Z"/>
    <path class="st5" d="M25.71,453.16v8.53h-1.72v-8.53h1.72ZM28.72,456.61v1.42h-3.5v-1.42h3.5ZM29.96,453.16v8.53h-1.7v-8.53h1.7Z"/>
    <path class="st5" d="M7.63,467.56l1.3,3.84,1.29-3.84h1.87l-2.3,5.43v3.1h-1.73v-3.1l-2.3-5.43h1.86Z"/>
    <path class="st5" d="M12.79,468.1c0-.25.08-.46.24-.63s.38-.25.66-.25.49.08.65.25.24.37.24.63-.08.46-.24.63-.38.25-.65.25-.5-.08-.66-.25-.24-.38-.24-.63ZM14.51,469.75v6.34h-1.65v-6.34h1.65Z"/>
    <path class="st5" d="M18.37,476.2c-.43,0-.82-.07-1.15-.2s-.62-.33-.85-.58-.41-.56-.53-.92-.18-.77-.18-1.23v-.52c0-.52.06-.97.18-1.36s.28-.72.5-.98.48-.46.79-.59.67-.2,1.07-.2.75.07,1.05.2.55.33.75.59.35.58.45.96.15.83.15,1.34v.75h-4.25v-1.15h2.64v-.15c0-.26-.03-.47-.08-.65s-.14-.3-.26-.39-.27-.13-.47-.13c-.16,0-.3.03-.42.1s-.2.17-.27.31-.12.32-.15.55-.05.49-.05.81v.52c0,.29.03.54.08.74s.13.36.23.48.22.21.37.26.31.08.5.08c.29,0,.55-.05.78-.16s.43-.25.59-.42l.66,1c-.11.15-.27.3-.47.45s-.44.27-.71.36-.6.14-.96.14Z"/>
    <path class="st5" d="M23.28,467.09v9h-1.65v-9h1.65Z"/>
    <path class="st5" d="M24.36,473.14v-.42c0-.52.04-.97.13-1.35s.22-.71.4-.97.39-.45.65-.58.55-.19.88-.19c.3,0,.57.08.79.23s.42.36.58.63.29.59.39.96.17.77.21,1.21v.61c-.05.41-.12.8-.21,1.16s-.22.67-.39.94-.36.47-.58.62-.49.23-.79.23c-.33,0-.63-.07-.88-.2s-.47-.33-.64-.59-.3-.58-.39-.96-.13-.82-.13-1.32ZM26,472.72v.42c0,.3.01.55.04.76s.08.39.15.52.16.23.27.3.25.1.42.1c.22,0,.4-.06.53-.17s.24-.27.31-.46.11-.42.11-.68v-1.11c0-.21-.03-.41-.08-.58s-.1-.32-.18-.44-.17-.21-.29-.28-.25-.1-.4-.1c-.16,0-.3.03-.42.1s-.21.17-.27.31-.12.32-.15.53-.05.48-.05.78ZM27.65,474.69v-7.6h1.65v9h-1.49s-.16-1.4-.16-1.4Z"/>
  </g>
  <g>
    <path class="st5" d="M9.45,544.21l-1.83,7.01h-1.81l2.67-8.53h1.13l-.15,1.52ZM10.96,548.03v1.42h-3.85v-1.42h3.85ZM10.9,551.21l-1.85-7.01-.17-1.52h1.15l2.69,8.53h-1.82Z"/>
    <path class="st5" d="M17.47,548.37h1.71c-.02.64-.15,1.18-.39,1.62s-.57.77-1,1-.95.34-1.56.34c-.47,0-.89-.08-1.26-.24s-.68-.39-.94-.7-.45-.69-.58-1.15-.2-.98-.2-1.57v-1.45c0-.59.07-1.12.21-1.58s.34-.84.6-1.15.57-.54.94-.7.79-.24,1.25-.24c.62,0,1.14.12,1.56.35s.74.57.97,1.02.37,1,.41,1.64h-1.71c-.01-.41-.06-.73-.14-.96s-.21-.4-.38-.49-.41-.14-.71-.14c-.23,0-.42.04-.59.12s-.3.21-.4.38-.18.41-.23.69-.07.63-.07,1.04v1.46c0,.4.02.75.06,1.03s.11.51.21.69.22.31.38.39.37.12.62.12c.29,0,.52-.04.7-.13s.31-.24.4-.46.13-.54.15-.95Z"/>
    <path class="st5" d="M25.59,542.68v1.42h-5.91v-1.42h5.91ZM23.47,542.68v8.53h-1.71v-8.53h1.71Z"/>
    <path class="st5" d="M28.36,542.68v8.53h-1.71v-8.53h1.71Z"/>
    <path class="st5" d="M31.09,542.68l1.61,6.71.26,1.82h-1.25l-2.46-8.53h1.83ZM32.48,549.39l1.62-6.71h1.85l-2.47,8.53h-1.25l.25-1.82Z"/>
    <path class="st5" d="M38.47,542.68v8.53h-1.72v-8.53h1.72ZM41.63,542.68v1.42h-3.7v-1.42h3.7ZM41.15,546.14v1.38h-3.21v-1.38h3.21ZM41.65,549.79v1.42h-3.71v-1.42h3.71Z"/>
    <path class="st5" d="M7.63,557.08l1.1,7.27-.19,1.26h-1.08l-1.53-8.53h1.69ZM8.1,564.33l1.37-7.25h.9l.27,1.12-1.46,7.41h-.98l-.09-1.28ZM10.89,557.08l1.38,7.29-.11,1.24h-.98l-1.46-7.42.28-1.11h.9ZM11.63,564.32l1.1-7.24h1.69l-1.52,8.53h-1.08l-.18-1.29Z"/>
    <path class="st5" d="M17.07,557.08v8.53h-1.72v-8.53h1.72ZM20.24,557.08v1.42h-3.7v-1.42h3.7ZM19.75,560.54v1.38h-3.21v-1.38h3.21ZM20.25,564.19v1.42h-3.71v-1.42h3.71Z"/>
    <path class="st5" d="M22.96,557.08v8.53h-1.72v-8.53h1.72ZM25.98,564.19v1.42h-3.54v-1.42h3.54Z"/>
    <path class="st5" d="M28.7,557.08v8.53h-1.72v-8.53h1.72ZM31.72,564.19v1.42h-3.54v-1.42h3.54Z"/>
  </g>
  <g>
    <path class="st5" d="M9.97,728.02c0-.15-.01-.29-.04-.42s-.08-.24-.17-.35-.21-.21-.38-.32-.38-.21-.65-.33c-.32-.13-.62-.27-.92-.42s-.56-.33-.8-.52-.43-.43-.57-.71-.21-.59-.21-.96.07-.69.2-.98.32-.54.56-.75.53-.37.85-.48.69-.17,1.09-.17c.55,0,1.02.11,1.42.34s.71.54.93.93.33.85.33,1.36h-1.71c0-.24-.03-.46-.1-.64s-.18-.33-.33-.44-.34-.16-.57-.16c-.22,0-.4.04-.54.13s-.25.21-.32.36-.1.32-.1.51c0,.14.03.27.1.38s.16.21.28.3.26.17.43.25.35.16.55.24c.39.15.73.32,1.03.5s.54.38.74.61.35.48.45.76.15.6.15.96-.06.68-.18.97-.3.54-.54.75-.52.37-.85.48-.7.17-1.1.17-.77-.06-1.12-.17-.66-.28-.93-.51-.48-.52-.63-.87-.23-.77-.23-1.26h1.72c0,.26.03.48.08.66s.13.33.23.43.24.19.39.24.33.08.53.08c.23,0,.41-.04.54-.13s.23-.2.29-.35.09-.31.09-.49Z"/>
    <path class="st5" d="M18.83,725.34v1.42c0,.6-.07,1.13-.22,1.58s-.35.83-.62,1.13-.59.53-.97.68-.79.23-1.25.23-.87-.08-1.25-.23-.7-.38-.97-.68-.48-.68-.63-1.13-.22-.98-.22-1.58v-1.42c0-.62.07-1.16.22-1.62s.35-.85.63-1.16.6-.54.97-.7.79-.24,1.25-.24.87.08,1.25.24.7.39.97.7.48.7.63,1.16.22,1,.22,1.62ZM17.12,726.76v-1.44c0-.41-.03-.75-.09-1.04s-.15-.52-.26-.71-.26-.32-.43-.4-.36-.13-.59-.13-.42.04-.59.13-.31.22-.43.4-.2.42-.26.71-.08.63-.08,1.04v1.44c0,.39.03.72.09,1s.15.5.26.68.26.31.43.39.37.13.59.13.41-.04.58-.13.31-.21.42-.39.2-.4.26-.68.09-.61.09-1Z"/>
    <path class="st5" d="M21.79,721.73v8.53h-1.72v-8.53h1.72ZM24.81,728.85v1.42h-3.54v-1.42h3.54Z"/>
    <path class="st5" d="M29.02,723.26l-1.83,7.01h-1.81l2.67-8.53h1.13l-.15,1.52ZM30.53,727.08v1.42h-3.85v-1.42h3.85ZM30.47,730.27l-1.85-7.01-.17-1.52h1.15l2.69,8.53h-1.82Z"/>
    <path class="st5" d="M33.1,721.73h2.74c.57,0,1.06.1,1.46.29s.71.48.93.87.32.86.32,1.42c0,.46-.06.85-.19,1.18s-.3.6-.53.81-.51.39-.83.52l-.52.31h-2.22v-1.42s1.54,0,1.54,0c.23,0,.43-.05.58-.16s.27-.25.35-.44.11-.41.11-.67c0-.27-.03-.5-.1-.69s-.18-.34-.32-.45-.34-.16-.57-.16h-1.02v7.11h-1.72v-8.53ZM36.98,730.27l-1.56-3.8h1.8s1.6,3.72,1.6,3.72v.08h-1.83Z"/>
    <path class="st5" d="M8.08,736.13v8.53h-1.72v-8.53h1.72ZM11.08,736.13v1.42h-3.43v-1.42h3.43ZM10.75,739.76v1.42h-3.11v-1.42h3.11Z"/>
    <path class="st5" d="M14.04,737.66l-1.83,7.01h-1.81l2.67-8.53h1.13l-.15,1.52ZM15.55,741.48v1.42h-3.85v-1.42h3.85ZM15.48,744.67l-1.85-7.01-.17-1.52h1.15l2.69,8.53h-1.82Z"/>
    <path class="st5" d="M18.12,736.13h2.74c.57,0,1.06.1,1.46.29s.71.48.93.87.32.86.32,1.42c0,.46-.06.85-.19,1.18s-.3.6-.53.81-.51.39-.83.52l-.52.31h-2.22v-1.42s1.54,0,1.54,0c.23,0,.43-.05.58-.16s.27-.25.35-.44.11-.41.11-.67c0-.27-.03-.5-.1-.69s-.18-.34-.32-.45-.34-.16-.57-.16h-1.02v7.11h-1.72v-8.53ZM21.99,744.67l-1.56-3.8h1.8s1.6,3.72,1.6,3.72v.08h-1.83Z"/>
    <path class="st5" d="M24.75,736.13h1.44l.22,5.62v2.91h-1.66v-8.53ZM25.36,736.13h1.51l1.74,5.84,1.73-5.84h1.33l-2.43,8.53h-1.28l-2.6-8.53ZM31.02,736.13h1.44v8.53h-1.65v-2.91l.21-5.62Z"/>
  </g>
  <g>
    <path class="st2" d="M10.89,15.1v18.48h-3.72V15.1h3.72ZM20.07,15.1l-5.99,9.18-3.67,4.57-.71-3.72,2.37-3.96,3.48-6.07h4.52ZM15.77,33.58l-4.04-8.49,2.73-2.41,5.69,10.91h-4.38Z"/>
    <path class="st2" d="M25.27,15.1v18.48h-3.72V15.1h3.72ZM32.13,15.1v3.08h-8.01v-3.08h8.01ZM31.07,22.59v2.98h-6.96v-2.98h6.96ZM32.15,30.51v3.07h-8.04v-3.07h8.04Z"/>
    <path class="st2" d="M37.05,15.1l2.82,8.33,2.79-8.33h4.05l-4.98,11.77v6.72h-3.75v-6.72l-4.98-11.77h4.04Z"/>
  </g>
  <g>
    <path class="st2" d="M34.82,622.83l-6.3-20.68h-7.14l-6.19,20.68H5.67v4.7h38.66v-4.7h-9.51ZM24.93,614.09c-3.74-.09-3.75-5.76,0-5.85,3.93-.09,3.92,5.94,0,5.85Z"/>
    <rect class="st2" x="18.69" y="596.39" width="12.63" height="4.7"/>
    <rect class="st2" x="21.16" y="592.47" width="7.67" height="2.86"/>
  </g>
  <g>
    <path class="st5" d="M10.43,637.9h1.71c-.02.64-.15,1.18-.39,1.62s-.57.77-1,1-.95.34-1.56.34c-.47,0-.89-.08-1.26-.24s-.68-.39-.94-.7-.45-.69-.58-1.15-.2-.98-.2-1.57v-1.45c0-.59.07-1.12.21-1.58s.34-.84.6-1.15.57-.54.94-.7.79-.24,1.25-.24c.62,0,1.14.12,1.56.35s.74.57.97,1.02.37,1,.41,1.64h-1.71c-.01-.41-.06-.73-.14-.96s-.21-.4-.38-.49-.41-.14-.71-.14c-.23,0-.42.04-.59.12s-.3.21-.4.38-.18.41-.23.69-.07.63-.07,1.04v1.46c0,.4.02.75.06,1.03s.11.51.21.69.22.31.38.39.37.12.62.12c.29,0,.52-.04.7-.13s.31-.24.4-.46.13-.54.15-.95Z"/>
    <path class="st5" d="M16.29,633.73l-1.83,7.01h-1.81l2.67-8.53h1.13l-.15,1.52ZM17.8,637.56v1.42h-3.85v-1.42h3.85ZM17.73,640.74l-1.85-7.01-.17-1.52h1.15l2.69,8.53h-1.82Z"/>
    <path class="st5" d="M23.27,637.73h-1.75v-1.42h1.75c.25,0,.45-.05.6-.16s.26-.26.33-.45.11-.41.11-.65-.04-.48-.11-.69-.18-.39-.33-.52-.35-.2-.6-.2h-1.19v7.11h-1.72v-8.53h2.91c.57,0,1.07.12,1.48.36s.73.58.95,1,.33.91.33,1.46-.11,1.03-.33,1.43-.54.72-.95.94-.91.33-1.48.33Z"/>
    <path class="st5" d="M30.09,637.73h-1.75v-1.42h1.75c.25,0,.45-.05.6-.16s.26-.26.33-.45.11-.41.11-.65-.04-.48-.11-.69-.18-.39-.33-.52-.35-.2-.6-.2h-1.19v7.11h-1.72v-8.53h2.91c.57,0,1.07.12,1.48.36s.73.58.95,1,.33.91.33,1.46-.11,1.03-.33,1.43-.54.72-.95.94-.91.33-1.48.33Z"/>
    <path class="st5" d="M35.72,632.21v8.53h-1.72v-8.53h1.72ZM38.89,632.21v1.42h-3.7v-1.42h3.7ZM38.4,635.67v1.38h-3.21v-1.38h3.21ZM38.9,639.32v1.42h-3.71v-1.42h3.71Z"/>
    <path class="st5" d="M41.61,632.21v8.53h-1.72v-8.53h1.72ZM42.12,640.74h-1.51v-1.42h1.51c.41,0,.74-.07.97-.22s.39-.38.49-.7.14-.74.14-1.26v-1.33c0-.39-.03-.73-.08-1s-.14-.5-.26-.67-.28-.3-.49-.38-.46-.12-.76-.12h-1.56v-1.42h1.56c.49,0,.94.08,1.34.24s.75.39,1.04.7.51.68.67,1.13.23.96.23,1.54v1.32c0,.58-.08,1.09-.23,1.54s-.38.82-.67,1.13-.63.54-1.04.7-.86.24-1.37.24Z"/>
    <path class="st5" d="M7.63,646.61l1.1,7.27-.19,1.26h-1.08l-1.53-8.53h1.69ZM8.1,653.86l1.37-7.25h.9l.27,1.12-1.46,7.41h-.98l-.09-1.28ZM10.89,646.61l1.38,7.29-.11,1.24h-.98l-1.46-7.42.28-1.11h.9ZM11.63,653.85l1.1-7.24h1.69l-1.52,8.53h-1.08l-.18-1.29Z"/>
    <path class="st5" d="M17.07,646.61v8.53h-1.72v-8.53h1.72ZM20.24,646.61v1.42h-3.7v-1.42h3.7ZM19.75,650.06v1.38h-3.21v-1.38h3.21ZM20.25,653.72v1.42h-3.71v-1.42h3.71Z"/>
    <path class="st5" d="M22.96,646.61v8.53h-1.72v-8.53h1.72ZM25.98,653.72v1.42h-3.54v-1.42h3.54Z"/>
    <path class="st5" d="M28.7,646.61v8.53h-1.72v-8.53h1.72ZM31.72,653.72v1.42h-3.54v-1.42h3.54Z"/>
  </g>
  <path class="st2" d="M45.03,709.09l-4.09-18.24c-.2-.9-1.11-1.55-2.16-1.55h-18.41c-.17-1.02-.55-1.97-1.13-2.82l1.88-1.88c.22-.22.34-.51.34-.82s-.12-.6-.34-.82c-.44-.44-1.2-.44-1.64,0l-1.84,1.84c-.92-.69-1.98-1.15-3.12-1.34v-2.65c0-.64-.52-1.16-1.16-1.16s-1.16.52-1.16,1.16v2.65c-1.01.17-1.98.56-2.83,1.14l-1.89-1.89c-.44-.44-1.2-.44-1.64,0-.22.22-.34.51-.34.82s.12.6.34.82l1.85,1.85c-.69.91-1.14,1.98-1.33,3.1h-2.63c-.64,0-1.16.52-1.16,1.16s.52,1.16,1.16,1.16h2.63c.18,1.07.6,2.09,1.23,2.97l-1.86,1.86c-.22.22-.34.51-.34.82,0,.31.12.6.34.82.44.44,1.21.44,1.64,0l1.86-1.86c.38.27.78.5,1.2.69l-2.73,12.17c-.14.63,0,1.27.39,1.76.39.49,1.01.78,1.68.78h15.43v3.23h-5.93c-.64,0-1.16.52-1.16,1.16s.52,1.16,1.16,1.16h14.17c.64,0,1.16-.52,1.16-1.16s-.52-1.16-1.16-1.16h-5.93v-3.23h15.44c.67,0,1.29-.28,1.68-.78.39-.48.53-1.12.39-1.76ZM42.71,709.3h-9.42l-.5-5.45h8.7l1.22,5.45ZM11.26,703.86h8.12l-.5,5.45h-8.84l1.22-5.45ZM13.38,685.68c2.21,0,4.11,1.54,4.63,3.62h-4.04c-1.05,0-1.96.65-2.16,1.55l-.84,3.74c-1.45-.84-2.37-2.41-2.37-4.13,0-2.64,2.14-4.78,4.78-4.78ZM22.52,695.08l.32-3.47h6.49l.32,3.47h-7.13ZM30.96,709.3h-9.76l.5-5.45h8.75l.5,5.45ZM31.97,695.08l-.32-3.47h7.09s.78,3.47.78,3.47h-7.54ZM21.92,701.54l.38-4.14h7.56l.38,4.14h-8.32ZM19.98,697.4l-.38,4.14h-7.82l.93-4.14h7.27ZM20.19,695.08h-6.96l.78-3.47h6.51l-.32,3.47ZM32.19,697.4h7.85l.93,4.14h-8.39l-.38-4.14Z"/>
</svg>