<?xml version="1.0" encoding="UTF-8"?>
<svg id="flag" xmlns="http://www.w3.org/2000/svg" version="1.1" viewBox="0 0 708.66 472.44">
  <!-- Generator: Adobe Illustrator 29.4.0, SVG Export Plug-In . SVG Version: 2.1.0 Build 152)  -->
  <defs>
    <style>
      .st0 {
        fill: #ffd416;
      }

      .st0, .st1 {
        fill-rule: evenodd;
      }

      .st1 {
        fill: #de202c;
      }
    </style>
  </defs>
  <polygon class="st0" points="0 472.44 708.66 472.44 708.66 0 0 0 0 472.44 0 472.44"/>
  <path class="st1" d="M261.28,263.85h62.6c.89.98,1.83,1.92,2.82,2.82v62.6c0,6.63,10.04,6.63,10.04,0v-55.88c1.62.77,3.31,1.44,5.04,1.99v74.08c0,6.63,10.04,6.63,10.04,0v-72.21c.83.05,1.67.08,2.51.08s1.68-.03,2.51-.08v72.21c0,6.63,10.04,6.63,10.04,0v-74.08c1.73-.56,3.41-1.22,5.04-1.99v55.88c0,6.63,10.04,6.63,10.04,0v-62.6c.98-.89,1.92-1.83,2.82-2.82h62.6c6.63,0,6.63-10.04,0-10.04h-55.88c.77-1.62,1.44-3.31,1.99-5.04h74.08c6.63,0,6.63-10.04,0-10.04h-72.21c.05-.83.08-1.67.08-2.51s-.03-1.68-.08-2.51h72.21c6.63,0,6.63-10.04,0-10.04h-74.08c-.55-1.73-1.22-3.41-1.99-5.04h55.88c6.63,0,6.63-10.04,0-10.04h-62.6c-.89-.98-1.83-1.93-2.82-2.82v-62.6c0-6.63-10.04-6.63-10.04,0v55.88c-1.62-.77-3.31-1.44-5.04-1.99v-74.08c0-6.63-10.04-6.63-10.04,0v72.21c-.83-.05-1.67-.08-2.51-.08s-1.68.03-2.51.08v-72.21c0-6.63-10.04-6.63-10.04,0v74.08c-1.73.55-3.41,1.22-5.04,1.99v-55.88c0-6.63-10.04-6.63-10.04,0v62.6c-.98.89-1.92,1.84-2.82,2.82h-62.6c-6.63,0-6.63,10.04,0,10.04h55.88c-.77,1.62-1.44,3.31-1.99,5.04h-74.08c-6.63,0-6.63,10.04,0,10.04h72.21c-.05.83-.08,1.67-.08,2.51s.03,1.68.08,2.51h-72.21c-6.63,0-6.63,10.04,0,10.04h74.08c.55,1.73,1.22,3.41,1.99,5.04h-55.88c-6.63,0-6.63,10.04,0,10.04h0ZM354.33,201.38c19.24,0,34.84,15.61,34.84,34.84s-15.61,34.84-34.84,34.84-34.84-15.61-34.84-34.84,15.61-34.84,34.84-34.84h0Z"/>
</svg>